<svg fill="none" xmlns="http://www.w3.org/2000/svg" viewBox="0 0 18 18"><path d="M15 1.5H3c-.83 0-1.5.67-1.5 1.5v13.5l3-3H15c.82 0 1.5-.68 1.5-1.5V3c0-.83-.68-1.5-1.5-1.5zM14.25 12H4.5L3 13.5V3.75c0-.41.34-.75.75-.75h10.5c.41 0 .75.34.75.75v7.5c0 .41-.34.75-.75.75z" fill="#777575"/><path opacity=".7" fill-rule="evenodd" clip-rule="evenodd" d="M4.5 5.25c0-.41.34-.75.75-.75h7.5a.75.75 0 010 1.5h-7.5a.75.75 0 01-.75-.75zm0 2.25c0-.41.34-.75.75-.75h7.5a.75.75 0 010 1.5h-7.5a.75.75 0 01-.75-.75zM5.25 9a.75.75 0 000 1.5h7.5a.75.75 0 000-1.5h-7.5z" fill="#777575"/></svg>