<svg fill="none" xmlns="http://www.w3.org/2000/svg" viewBox="0 0 24 24"><circle cx="12" cy="12" r="9" stroke="#fff" stroke-width="2" stroke-linejoin="round"/><path fill-rule="evenodd" clip-rule="evenodd" d="M12.07 18c.77 0 1.47-.08 2.1-.24a4.8 4.8 0 001.45-.58c.25-.17.38-.33.38-.5 0-.16-.1-.38-.3-.65-.19-.28-.35-.42-.47-.42a9.37 9.37 0 01-1.6.66c-.4.12-.88.18-1.41.18a2.6 2.6 0 01-1.57-.45 1.52 1.52 0 01-.64-1.3c0-.26.06-.5.18-.7H17v-1h-5.41l.8-.33.4-.15c.46-.17.87-.35 1.2-.52H17v-1h-1.75l.11-.16c.27-.43.4-.97.4-1.65a2.8 2.8 0 00-.53-1.7 3.49 3.49 0 00-1.48-1.1A5.49 5.49 0 0011.63 6c-.47 0-.96.06-1.46.17-.5.11-.91.26-1.2.44-.26.14-.39.3-.39.47 0 .15.1.37.28.65.17.27.32.4.44.4.06 0 .23-.06.53-.2a4.3 4.3 0 011.75-.37c.68 0 1.22.15 1.6.44.38.3.57.68.57 1.18 0 .36-.1.65-.29.87-.2.22-.45.4-.73.52-.25.11-.61.25-1.1.43H7v1h2.37a3.21 3.21 0 00-.96 1H7v1h1.05c-.03.19-.05.4-.05.6 0 1.1.38 1.93 1.13 2.53.76.58 1.74.87 2.94.87z" fill="#fff"/></svg>