<svg fill="none" xmlns="http://www.w3.org/2000/svg" viewBox="0 0 39 16"><g clip-path="url(#clip0)" fill="#797878"><path d="M5.4 6.82l.35-1.42C6.18 3.62 6.77 1.89 7.32.15c.04-.12.1-.15.2-.15h2.56c.14 0 .18.06.18.2l.29 5.53.22 3.75c.02.37.02.37-.32.37h-1.6c-.19.01-.22-.05-.23-.23-.1-2.52-.2-5.04-.23-7.55-.09-.01-.07.06-.08.1-.62 2.5-1.47 4.91-2.2 7.36-.03.12-.08.16-.2.16H4.5c-.12 0-.17-.03-.2-.16C3.7 7.35 3.06 5.2 2.6 3l-.2-.92h-.03l-.06 1.54-.18 3.63c-.03.8-.08 1.59-.1 2.38 0 .17-.05.22-.2.22H.17c-.15 0-.19-.04-.18-.2.07-.88.12-1.76.17-2.63l.17-2.56.16-2.55L.6.2C.6.06.64 0 .8 0h2.58c.14 0 .2.05.23.18C4.16 2.1 4.76 4.03 5.17 6l.17.8a.2.2 0 01.05 0zM25.94 7.73a4.4 4.4 0 002.05.57c.18 0 .35-.04.52-.1a.56.56 0 00.38-.5.6.6 0 00-.25-.56 2.76 2.76 0 00-.74-.35 5.04 5.04 0 01-1.29-.65c-1.32-.95-1.04-2.69-.08-3.5a3.3 3.3 0 012.28-.71c.41 0 .82.06 1.22.16.1.03.14.07.13.18-.05.48-.1.95-.13 1.43-.02.17-.1.1-.18.07-.39-.13-.78-.22-1.2-.2a.98.98 0 00-.5.15.55.55 0 00-.07.88c.25.22.56.32.85.43.36.15.71.28 1.04.48a2.17 2.17 0 011.1 2.12 2.19 2.19 0 01-1.31 1.95 5.44 5.44 0 01-3.98-.02c-.18-.08-.26-.16-.2-.4.15-.47.24-.95.36-1.43zM33.74 3.64V7c0 .56.26.93.68.99.22.03.46.04.69-.02.15-.04.2-.02.2.16l.01 1.46c0 .1-.02.17-.12.19-.77.18-1.53.27-2.29 0-.88-.3-1.26-1.02-1.35-1.92-.12-1.15-.03-2.3-.06-3.44v-.3c.03-.2-.03-.3-.26-.28-.2.03-.41 0-.62.01-.12 0-.15-.03-.13-.15l.13-1.48c0-.12.05-.13.14-.13h.58c.13 0 .16-.04.16-.16V.72c0-.13.04-.19.15-.22.64-.14 1.26-.3 1.9-.45.15-.04.18.02.18.17v3.42h.01zM14.53 12.75h-2.9c-.2 0-.25-.06-.24-.26.02-.39.01-.78 0-1.17 0-.14.03-.2.18-.2h5.94c.15 0 .19.06.18.2v1.22c0 .18-.06.21-.21.21h-2.95zM35.33 0h1.4c.1 0 .16.04.22.13l1.41 2.7c.05.1.05.17 0 .27l-1.4 2.68c-.05.08-.08.14-.2.14h-1.38c-.03-.1.03-.16.06-.22l1.33-2.55c.08-.14.08-.24 0-.38L35.44.22l-.1-.22zM18.52 12.97v-1.66c0-.14.03-.2.18-.2.64.02 1.27.02 1.9 0 .14 0 .17.05.17.19.01.62.02.62-.58.62h-.6c-.13 0-.16.04-.16.17-.02.46-.02.46.41.46h.7c.1 0 .15.03.15.14.03.64.04.64-.56.64h-.56c-.06 0-.13 0-.13.1v.53c0 .13.1.1.18.1h1.04c.14 0 .19.02.2.18 0 .61 0 .61-.58.61-.49 0-.98-.02-1.46 0-.26.02-.3-.07-.3-.32.02-.52 0-1.04 0-1.56zM20.92 14.85l.7-1.18c.12-.16.1-.27 0-.42l-.7-1.12h.95c.09 0 .11.08.14.14l.33.67.28-.65c.05-.13.11-.17.24-.17h.82l-.42.67c-.13.21-.35.42-.36.63 0 .22.21.44.34.65l.44.78h-.96c-.1 0-.1-.08-.13-.14a56 56 0 01-.32-.7l-.29.68c-.04.11-.09.16-.22.16h-.84zM32.09 14.9c-.25.01-.48-.04-.7-.12-.11-.04-.15-.1-.11-.22.04-.15.03-.35.11-.45.12-.13.27.06.42.08.14 0 .27.04.41.02.08 0 .14-.03.16-.11.02-.1-.05-.16-.12-.19l-.36-.15c-.44-.19-.61-.46-.58-.88.03-.36.31-.66.7-.77.34-.08.66-.03.98.06.1.03.17.08.11.2v.03c-.04.14-.03.34-.13.43-.08.1-.24-.07-.37-.07-.14 0-.35-.1-.4.11-.06.22.17.22.3.27.32.14.63.26.72.66.13.57-.24 1.05-.87 1.1h-.27zM33.57 14.05c.26.09.5.19.75.17.1 0 .22 0 .24-.13.02-.13-.1-.16-.18-.2l-.32-.13c-.4-.17-.6-.46-.57-.82a.9.9 0 01.7-.82c.34-.1.68-.04 1 .05.1.03.17.07.1.19l-.01.1c-.04.12-.04.3-.12.38-.07.06-.21-.07-.33-.08-.15 0-.38-.11-.44.1-.06.21.18.21.3.28.14.07.28.12.4.2.46.3.46 1 .03 1.34-.4.3-1.25.26-1.62.07-.07-.03-.07-.07-.06-.13l.13-.57zM27.67 12.64c.14-.36.35-.53.65-.58.14-.02.24.01.22.2v.27c0 .14.04.3-.02.4-.06.14-.23.04-.35.06-.23.05-.38.2-.38.45-.01.4-.02.8 0 1.2 0 .15-.04.23-.2.21-.24-.02-.54.08-.68-.04-.15-.13-.05-.46-.05-.7 0-.61 0-1.22-.02-1.83 0-.11.02-.16.13-.15h.16c.45 0 .45 0 .54.5z"/><path d="M33.92 2.97v-.71c0-.12.03-.17.16-.17h1.08c.12 0 .15.04.15.16v1.43c0 .12-.03.17-.16.17h-1.08c-.12 0-.15-.04-.15-.15v-.73zM25.27 4.52a3.18 3.18 0 00-1.57-2.23 3.4 3.4 0 00-1.98-.34 3.32 3.32 0 00-2.65 1.68c-.57.95-.72 2-.6 3.1a3.39 3.39 0 002.37 3c.84.26 1.68.26 2.53.16.5-.06 1-.16 1.48-.35.09-.03.16-.05.14-.18-.1-.45-.19-.9-.26-1.36-.02-.13-.08-.12-.16-.1-.33.12-.67.19-1.02.22-.64.07-1.28.12-1.9-.12-.5-.19-.88-.5-1.03-1.07-.04-.16-.03-.26.19-.25h4.34c.13 0 .2-.01.22-.17.09-.67.06-1.33-.1-2zm-2.34.56h-2.09c-.28 0-.28 0-.21-.29.13-.54.37-1.02.9-1.2.75-.26 1.53 0 1.74 1.06.09.43.08.43-.34.43zM17.93 4.6a3.28 3.28 0 00-1.51-2.27 3.38 3.38 0 00-2.09-.38c-.99.1-1.81.53-2.41 1.36-.8 1.12-1.01 2.4-.76 3.74a3.2 3.2 0 002 2.55c1.45.58 2.9.41 4.35-.07.18-.06.1-.18.1-.27-.07-.38-.17-.76-.22-1.14-.02-.22-.08-.24-.28-.19-.83.24-1.68.36-2.54.16-.63-.14-1.13-.46-1.31-1.18-.05-.16-.02-.23.16-.22h4.37c.13 0 .19 0 .2-.17.08-.64.07-1.28-.06-1.91zm-2 .37c0 .13-.08.1-.15.1h-1.2l-1.22.01c-.12 0-.15-.04-.13-.15.17-.99.83-1.65 1.85-1.36.5.15.91.85.86 1.4zM26.38 12.7c-.23-.5-.71-.73-1.21-.58-.2.06-.34.2-.56.4.13-.48-.14-.39-.34-.4-.08 0-.16.02-.23 0-.16-.01-.21.04-.21.22v2.85c0 .25-.08.6.04.73.15.16.48.03.74.05.14.02.16-.05.15-.18v-1.1c.7.5 1.4.08 1.62-.47.22-.5.23-1.02 0-1.53zm-.83 1.16c-.08.23-.27.34-.47.3-.21-.06-.3-.22-.3-.43v-.25c0-.1-.02-.2 0-.29.04-.18.15-.32.34-.35.2-.03.34.07.42.27.1.24.1.5 0 .75zM29.67 13.83h.95c.5 0 .5 0 .47-.51-.02-.6-.36-1.08-.81-1.2-.63-.16-1.2.1-1.48.66-.46.9-.07 1.9.84 2.1.27.06.55.06.83 0 .5-.08.5-.1.4-.62-.02-.12-.05-.15-.16-.13-.16.03-.32.06-.48.07a.9.9 0 01-.62-.15c-.05-.04-.1-.09-.09-.16.01-.1.1-.06.15-.06zm-.18-.7c-.03-.08.03-.19.09-.26.1-.13.22-.19.39-.15.16.05.22.18.27.34.03.09-.01.13-.1.13h-.43c-.07-.03-.18.04-.22-.06z"/></g><defs><clipPath id="clip0"><path fill="#fff" d="M0 0h38.4v16H0z"/></clipPath></defs></svg>