<svg fill="none" xmlns="http://www.w3.org/2000/svg" viewBox="0 0 24 24"><path d="M10.3 4.57a1.9 1.9 0 013.4 0v0a1.9 1.9 0 002.35.97v0a1.9 1.9 0 012.41 2.41v0c-.32.92.1 1.92.97 2.34v0a1.9 1.9 0 010 3.42v0a1.9 1.9 0 00-.97 2.34v0a1.9 1.9 0 01-2.41 2.41v0a1.9 1.9 0 00-2.34.97v0a1.9 1.9 0 01-3.42 0v0a1.9 1.9 0 00-2.34-.97v0a1.9 1.9 0 01-2.41-2.41v0a1.9 1.9 0 00-.97-2.34v0a1.9 1.9 0 010-3.42v0a1.9 1.9 0 00.97-2.34v0a1.9 1.9 0 012.41-2.41v0a1.9 1.9 0 002.34-.97v0z" stroke="#fff" stroke-width="2"/><circle cx="12" cy="12" r="2" stroke="#fff" stroke-width="2"/></svg>