<svg width="163" height="16" viewBox="0 0 163 16" fill="none" xmlns="http://www.w3.org/2000/svg">
<path d="M12.3375 10.7166C12.1811 12.3779 11.5697 13.6756 10.5034 14.6096C9.43707 15.5365 8.01884 16 6.24872 16C5.01178 16 3.92056 15.7077 2.97508 15.123C2.0367 14.5312 1.31159 13.6934 0.799751 12.6096C0.287911 11.5258 0.0213267 10.2674 0 8.83422V7.37968C0 5.91087 0.259475 4.61676 0.778425 3.49733C1.29737 2.3779 2.04025 1.51515 3.00707 0.909091C3.98098 0.30303 5.10419 0 6.37668 0C8.08993 0 9.46906 0.467023 10.5141 1.40107C11.5591 2.33512 12.1669 3.65419 12.3375 5.35829H9.65033C9.52237 4.23886 9.19536 3.43316 8.66931 2.94118C8.15036 2.44207 7.38615 2.19251 6.37668 2.19251C5.20372 2.19251 4.30089 2.62389 3.66819 3.48663C3.04261 4.34225 2.72271 5.60071 2.70849 7.26203V8.64171C2.70849 10.3244 3.00707 11.6078 3.60421 12.492C4.20847 13.3761 5.08997 13.8182 6.24872 13.8182C7.30795 13.8182 8.10415 13.5793 8.63732 13.1016C9.17048 12.6239 9.50816 11.8289 9.65033 10.7166H12.3375Z" fill="white"/>
<path d="M27.1489 8.40642C27.1489 9.93226 26.8859 11.2727 26.3598 12.4278C25.8337 13.5758 25.0802 14.4599 24.0992 15.0802C23.1253 15.6934 22.0021 16 20.7296 16C19.4713 16 18.3481 15.6934 17.3599 15.0802C16.3789 14.4599 15.6183 13.5793 15.078 12.4385C14.5448 11.2977 14.2747 9.98217 14.2676 8.49198V7.61497C14.2676 6.09626 14.5341 4.75579 15.0673 3.59358C15.6076 2.43137 16.3647 1.54367 17.3386 0.930481C18.3196 0.31016 19.4428 0 20.7082 0C21.9736 0 23.0933 0.306595 24.0672 0.919786C25.0482 1.52585 25.8053 2.40285 26.3385 3.5508C26.8716 4.69162 27.1418 6.02139 27.1489 7.54011V8.40642ZM24.4511 7.59358C24.4511 5.86809 24.1241 4.54545 23.47 3.62567C22.8231 2.70588 21.9025 2.24599 20.7082 2.24599C19.5424 2.24599 18.6289 2.70588 17.9677 3.62567C17.3137 4.53832 16.9796 5.83244 16.9654 7.50802V8.40642C16.9654 10.1176 17.296 11.4403 17.9571 12.3743C18.6253 13.3084 19.5495 13.7754 20.7296 13.7754C21.9239 13.7754 22.8409 13.3191 23.4807 12.4064C24.1276 11.4938 24.4511 10.1604 24.4511 8.40642V7.59358Z" fill="white"/>
<path d="M33.3336 0.213904L37.8122 12.1497L42.2802 0.213904H45.7671V15.7861H43.0799V10.6524L43.3465 3.7861L38.7613 15.7861H36.8312L32.2566 3.79679L32.5232 10.6524V15.7861H29.8361V0.213904H33.3336Z" fill="white"/>
<path d="M51.6639 10V15.7861H48.9661V0.213904H54.9056C56.6402 0.213904 58.0157 0.666667 59.0323 1.57219C60.056 2.47772 60.5678 3.67558 60.5678 5.16578C60.5678 6.69162 60.0667 7.87879 59.0643 8.72727C58.0691 9.57576 56.6722 10 54.8736 10H51.6639ZM51.6639 7.82888H54.9056C55.8653 7.82888 56.5975 7.60428 57.1023 7.15508C57.607 6.69875 57.8593 6.04278 57.8593 5.18717C57.8593 4.34581 57.6034 3.67558 57.0916 3.17647C56.5797 2.67023 55.876 2.40998 54.9802 2.39572H51.6639V7.82888Z" fill="white"/>
<path d="M69.7277 12.1604H63.7135L62.4553 15.7861H59.6508L65.5156 0.213904H67.9362L73.8117 15.7861H70.9966L69.7277 12.1604ZM64.4706 9.97861H68.9706L66.7206 3.51872L64.4706 9.97861Z" fill="white"/>
<path d="M87.898 15.7861H85.2002L78.2797 4.73797V15.7861H75.5818V0.213904H78.2797L85.2215 11.3048V0.213904H87.898V15.7861Z" fill="white"/>
<path d="M95.8529 7.59358L99.4251 0.213904H102.411L97.2071 10.0535V15.7861H94.4986V10.0535L89.2842 0.213904H92.2806L95.8529 7.59358Z" fill="white"/>
<path d="M112.232 13.6257H119.28V15.7861H109.534V0.213904H112.232V13.6257Z" fill="white"/>
<path d="M133.057 8.40642C133.057 9.93226 132.794 11.2727 132.268 12.4278C131.742 13.5758 130.989 14.4599 130.008 15.0802C129.034 15.6934 127.91 16 126.638 16C125.38 16 124.256 15.6934 123.268 15.0802C122.287 14.4599 121.527 13.5793 120.986 12.4385C120.453 11.2977 120.183 9.98217 120.176 8.49198V7.61497C120.176 6.09626 120.443 4.75579 120.976 3.59358C121.516 2.43137 122.273 1.54367 123.247 0.930481C124.228 0.31016 125.351 0 126.617 0C127.882 0 129.002 0.306595 129.976 0.919786C130.957 1.52585 131.714 2.40285 132.247 3.5508C132.78 4.69162 133.05 6.02139 133.057 7.54011V8.40642ZM130.359 7.59358C130.359 5.86809 130.032 4.54545 129.378 3.62567C128.732 2.70588 127.811 2.24599 126.617 2.24599C125.451 2.24599 124.537 2.70588 123.876 3.62567C123.222 4.53832 122.888 5.83244 122.874 7.50802V8.40642C122.874 10.1176 123.204 11.4403 123.866 12.3743C124.534 13.3084 125.458 13.7754 126.638 13.7754C127.832 13.7754 128.749 13.3191 129.389 12.4064C130.036 11.4938 130.359 10.1604 130.359 8.40642V7.59358Z" fill="white"/>
<path d="M147.645 13.7647C147.083 14.4991 146.305 15.0553 145.31 15.4332C144.314 15.8111 143.184 16 141.919 16C140.618 16 139.466 15.7041 138.464 15.1123C137.461 14.5205 136.686 13.6756 136.139 12.5775C135.599 11.4724 135.318 10.1854 135.297 8.71658V7.49733C135.297 5.14439 135.858 3.30838 136.981 1.9893C138.105 0.663102 139.672 0 141.684 0C143.411 0 144.783 0.427808 145.8 1.28342C146.817 2.13904 147.428 3.37255 147.634 4.98396H144.99C144.691 3.10873 143.607 2.17112 141.737 2.17112C140.529 2.17112 139.608 2.60963 138.975 3.48663C138.35 4.35651 138.026 5.63636 138.005 7.3262V8.52406C138.005 10.2068 138.357 11.5152 139.061 12.4492C139.772 13.3761 140.756 13.8396 142.015 13.8396C143.394 13.8396 144.375 13.5258 144.958 12.8984V9.85027H141.759V7.79679H147.645V13.7647Z" fill="white"/>
<path d="M163 8.40642C163 9.93226 162.737 11.2727 162.211 12.4278C161.685 13.5758 160.931 14.4599 159.95 15.0802C158.976 15.6934 157.853 16 156.581 16C155.322 16 154.199 15.6934 153.211 15.0802C152.23 14.4599 151.469 13.5793 150.929 12.4385C150.396 11.2977 150.126 9.98217 150.119 8.49198V7.61497C150.119 6.09626 150.385 4.75579 150.918 3.59358C151.459 2.43137 152.216 1.54367 153.19 0.930481C154.171 0.31016 155.294 0 156.559 0C157.825 0 158.944 0.306595 159.918 0.919786C160.899 1.52585 161.656 2.40285 162.19 3.5508C162.723 4.69162 162.993 6.02139 163 7.54011V8.40642ZM160.302 7.59358C160.302 5.86809 159.975 4.54545 159.321 3.62567C158.674 2.70588 157.754 2.24599 156.559 2.24599C155.393 2.24599 154.48 2.70588 153.819 3.62567C153.165 4.53832 152.831 5.83244 152.816 7.50802V8.40642C152.816 10.1176 153.147 11.4403 153.808 12.3743C154.476 13.3084 155.401 13.7754 156.581 13.7754C157.775 13.7754 158.692 13.3191 159.332 12.4064C159.979 11.4938 160.302 10.1604 160.302 8.40642V7.59358Z" fill="white"/>
</svg>
